<svg width="17" height="18" viewBox="0 0 17 18" fill="none" xmlns="http://www.w3.org/2000/svg">
<path d="M14.7172 9.04226C14.6939 12.7189 11.6843 15.6898 8.00833 15.6664C4.33241 15.6431 1.3608 12.6341 1.38416 8.95755C1.40751 5.28162 4.41712 2.31002 8.09305 2.33337C11.769 2.35673 14.7406 5.36634 14.7172 9.04226Z" stroke="black" stroke-opacity="0.9" stroke-width="1.5"/>
<path d="M10.8706 8.05609C10.8698 8.18342 10.8203 8.31111 10.7223 8.40782L8.39428 10.7177C8.29969 10.8111 8.17202 10.863 8.03869 10.8622C7.90603 10.8613 7.77903 10.8078 7.68563 10.7132L5.38578 8.37391C5.19236 8.17735 5.19436 7.86135 5.3916 7.66727C5.58883 7.47385 5.90549 7.47653 6.09891 7.6731L8.04636 9.65418L10.0188 7.698C10.2147 7.50391 10.5307 7.50525 10.7255 7.70116C10.8235 7.79912 10.8714 7.92809 10.8706 8.05609Z" fill="black"/>
</svg>
