<svg width="78" height="74" viewBox="0 0 78 74" fill="none" xmlns="http://www.w3.org/2000/svg">
<g clip-path="url(#clip0_301_4470)">
<path d="M32 68C26.0985 68 20.3119 66.368 15.28 63.2845C10.2482 60.2009 6.16702 55.786 3.48779 50.5277C0.808558 45.2694 -0.364381 39.3726 0.098643 33.4893C0.561671 27.606 2.64263 21.9653 6.11145 17.1909C9.58028 12.4164 14.3018 8.69427 19.7541 6.43585C25.2064 4.17744 31.177 3.47077 37.0059 4.39397C42.8348 5.31717 48.2948 7.83428 52.7823 11.667C57.2699 15.4997 60.6101 20.4988 62.4338 26.1115L59.3904 27.1003C57.7491 22.0489 54.7429 17.5498 50.7041 14.1003C46.6653 10.6509 41.7513 8.38546 36.5053 7.55457C31.2593 6.72369 25.8858 7.3597 20.9787 9.39227C16.0717 11.4248 11.8222 14.7748 8.70031 19.0718C5.57837 23.3688 3.7055 28.4454 3.28878 33.7404C2.87205 39.0354 3.9277 44.3425 6.33901 49.0749C8.75032 53.8074 12.4234 57.7809 16.952 60.556C21.4807 63.3312 26.6886 64.8 32 64.8L32 68Z" fill="black"/>
<path d="M38.136 35.636H40.068V37.316H38.192V43H36.008V35.3C36.008 34.4413 36.26 33.76 36.764 33.256C37.2773 32.752 37.996 32.5 38.92 32.5C39.2467 32.5 39.5547 32.5373 39.844 32.612C40.1427 32.6773 40.39 32.7753 40.586 32.906L40.012 34.488C39.76 34.3107 39.466 34.222 39.13 34.222C38.4673 34.222 38.136 34.586 38.136 35.314V35.636ZM43.8094 36.462C44.0707 36.098 44.4207 35.8227 44.8594 35.636C45.3074 35.4493 45.8207 35.356 46.3994 35.356V37.372C46.1567 37.3533 45.9934 37.344 45.9094 37.344C45.2841 37.344 44.7941 37.5213 44.4394 37.876C44.0847 38.2213 43.9074 38.744 43.9074 39.444V43H41.7234V35.468H43.8094V36.462ZM54.7136 35.468V43H52.6276V42.132C52.0863 42.7853 51.3023 43.112 50.2756 43.112C49.5663 43.112 48.9223 42.9533 48.3436 42.636C47.7743 42.3187 47.3263 41.866 46.9996 41.278C46.673 40.69 46.5096 40.0087 46.5096 39.234C46.5096 38.4593 46.673 37.778 46.9996 37.19C47.3263 36.602 47.7743 36.1493 48.3436 35.832C48.9223 35.5147 49.5663 35.356 50.2756 35.356C51.237 35.356 51.9883 35.6593 52.5296 36.266V35.468H54.7136ZM50.6536 41.32C51.2043 41.32 51.6616 41.1333 52.0256 40.76C52.3896 40.3773 52.5716 39.8687 52.5716 39.234C52.5716 38.5993 52.3896 38.0953 52.0256 37.722C51.6616 37.3393 51.2043 37.148 50.6536 37.148C50.0936 37.148 49.6316 37.3393 49.2676 37.722C48.9036 38.0953 48.7216 38.5993 48.7216 39.234C48.7216 39.8687 48.9036 40.3773 49.2676 40.76C49.6316 41.1333 50.0936 41.32 50.6536 41.32ZM65.8217 35.356C66.7643 35.356 67.511 35.636 68.0617 36.196C68.6217 36.7467 68.9017 37.5773 68.9017 38.688V43H66.7177V39.024C66.7177 38.4267 66.5917 37.9833 66.3397 37.694C66.097 37.3953 65.747 37.246 65.2897 37.246C64.7763 37.246 64.3703 37.414 64.0717 37.75C63.773 38.0767 63.6237 38.5667 63.6237 39.22V43H61.4397V39.024C61.4397 37.8387 60.9637 37.246 60.0117 37.246C59.5077 37.246 59.1063 37.414 58.8077 37.75C58.509 38.0767 58.3597 38.5667 58.3597 39.22V43H56.1757V35.468H58.2617V36.336C58.5417 36.0187 58.8823 35.776 59.2837 35.608C59.6943 35.44 60.1423 35.356 60.6277 35.356C61.1597 35.356 61.6403 35.4633 62.0697 35.678C62.499 35.8833 62.8443 36.1867 63.1057 36.588C63.4137 36.196 63.801 35.8927 64.2677 35.678C64.7437 35.4633 65.2617 35.356 65.8217 35.356ZM74.1753 41.362C74.5673 41.362 74.9126 41.306 75.2113 41.194C75.5193 41.0727 75.8039 40.886 76.0653 40.634L77.2273 41.894C76.5179 42.706 75.4819 43.112 74.1193 43.112C73.2699 43.112 72.5186 42.9487 71.8653 42.622C71.2119 42.286 70.7079 41.824 70.3533 41.236C69.9986 40.648 69.8213 39.9807 69.8213 39.234C69.8213 38.4967 69.9939 37.834 70.3393 37.246C70.6939 36.6487 71.1746 36.1867 71.7813 35.86C72.3973 35.524 73.0879 35.356 73.8533 35.356C74.5719 35.356 75.2253 35.51 75.8133 35.818C76.4013 36.1167 76.8679 36.5553 77.2133 37.134C77.5679 37.7033 77.7453 38.38 77.7453 39.164L72.1733 40.242C72.3319 40.6153 72.5793 40.8953 72.9153 41.082C73.2606 41.2687 73.6806 41.362 74.1753 41.362ZM73.8533 37.008C73.3026 37.008 72.8546 37.1853 72.5093 37.54C72.1639 37.8947 71.9819 38.3847 71.9633 39.01L75.6313 38.296C75.5286 37.904 75.3186 37.5913 75.0013 37.358C74.6839 37.1247 74.3013 37.008 73.8533 37.008Z" fill="black"/>
<path d="M39.648 56.112C38.8453 56.112 38.122 55.9487 37.478 55.622C36.8433 55.286 36.344 54.824 35.98 54.236C35.6253 53.648 35.448 52.9807 35.448 52.234C35.448 51.4873 35.6253 50.82 35.98 50.232C36.344 49.644 36.8433 49.1867 37.478 48.86C38.122 48.524 38.8453 48.356 39.648 48.356C40.4413 48.356 41.132 48.524 41.72 48.86C42.3173 49.1867 42.7513 49.658 43.022 50.274L41.328 51.184C40.936 50.4933 40.3713 50.148 39.634 50.148C39.0647 50.148 38.5933 50.3347 38.22 50.708C37.8467 51.0813 37.66 51.59 37.66 52.234C37.66 52.878 37.8467 53.3867 38.22 53.76C38.5933 54.1333 39.0647 54.32 39.634 54.32C40.3807 54.32 40.9453 53.9747 41.328 53.284L43.022 54.208C42.7513 54.8053 42.3173 55.272 41.72 55.608C41.132 55.944 40.4413 56.112 39.648 56.112ZM51.2678 48.468V56H49.1818V55.132C48.6404 55.7853 47.8564 56.112 46.8298 56.112C46.1204 56.112 45.4764 55.9533 44.8978 55.636C44.3284 55.3187 43.8804 54.866 43.5538 54.278C43.2271 53.69 43.0638 53.0087 43.0638 52.234C43.0638 51.4593 43.2271 50.778 43.5538 50.19C43.8804 49.602 44.3284 49.1493 44.8978 48.832C45.4764 48.5147 46.1204 48.356 46.8298 48.356C47.7911 48.356 48.5424 48.6593 49.0838 49.266V48.468H51.2678ZM47.2078 54.32C47.7584 54.32 48.2158 54.1333 48.5798 53.76C48.9438 53.3773 49.1258 52.8687 49.1258 52.234C49.1258 51.5993 48.9438 51.0953 48.5798 50.722C48.2158 50.3393 47.7584 50.148 47.2078 50.148C46.6478 50.148 46.1858 50.3393 45.8218 50.722C45.4578 51.0953 45.2758 51.5993 45.2758 52.234C45.2758 52.8687 45.4578 53.3773 45.8218 53.76C46.1858 54.1333 46.6478 54.32 47.2078 54.32ZM55.2638 56.112C54.6385 56.112 54.0271 56.0373 53.4298 55.888C52.8325 55.7293 52.3565 55.5333 52.0018 55.3L52.7298 53.732C53.0658 53.9467 53.4718 54.124 53.9478 54.264C54.4238 54.3947 54.8905 54.46 55.3478 54.46C56.2718 54.46 56.7338 54.2313 56.7338 53.774C56.7338 53.5593 56.6078 53.4053 56.3558 53.312C56.1038 53.2187 55.7165 53.1393 55.1938 53.074C54.5778 52.9807 54.0691 52.8733 53.6678 52.752C53.2665 52.6307 52.9165 52.416 52.6178 52.108C52.3285 51.8 52.1838 51.3613 52.1838 50.792C52.1838 50.316 52.3191 49.896 52.5898 49.532C52.8698 49.1587 53.2711 48.8693 53.7938 48.664C54.3258 48.4587 54.9511 48.356 55.6698 48.356C56.2018 48.356 56.7291 48.4167 57.2518 48.538C57.7838 48.65 58.2225 48.8087 58.5678 49.014L57.8398 50.568C57.1771 50.1947 56.4538 50.008 55.6698 50.008C55.2031 50.008 54.8531 50.0733 54.6198 50.204C54.3865 50.3347 54.2698 50.5027 54.2698 50.708C54.2698 50.9413 54.3958 51.1047 54.6478 51.198C54.8998 51.2913 55.3011 51.38 55.8518 51.464C56.4678 51.5667 56.9718 51.6787 57.3638 51.8C57.7558 51.912 58.0965 52.122 58.3858 52.43C58.6751 52.738 58.8198 53.1673 58.8198 53.718C58.8198 54.1847 58.6798 54.6 58.3998 54.964C58.1198 55.328 57.7091 55.6127 57.1678 55.818C56.6358 56.014 56.0011 56.112 55.2638 56.112ZM64.1433 55.636C63.9286 55.7947 63.6626 55.916 63.3453 56C63.0373 56.0747 62.7153 56.112 62.3793 56.112C61.474 56.112 60.7786 55.8833 60.2933 55.426C59.808 54.9687 59.5653 54.2967 59.5653 53.41V46.802H61.7493V48.636H63.6113V50.316H61.7493V53.382C61.7493 53.6993 61.8286 53.9467 61.9873 54.124C62.146 54.292 62.3746 54.376 62.6733 54.376C63.0093 54.376 63.308 54.2827 63.5693 54.096L64.1433 55.636Z" fill="white"/>
</g>
<defs>
<clipPath id="clip0_301_4470">
<rect width="78" height="74" fill="white"/>
</clipPath>
</defs>
</svg>
